<?xml version="1.0" encoding="UTF-8" standalone="no"?>
<!-- Created with Inkscape (http://www.inkscape.org/) -->

<svg
   xmlns:dc="http://purl.org/dc/elements/1.1/"
   xmlns:cc="http://creativecommons.org/ns#"
   xmlns:rdf="http://www.w3.org/1999/02/22-rdf-syntax-ns#"
   xmlns:svg="http://www.w3.org/2000/svg"
   xmlns="http://www.w3.org/2000/svg"
   xmlns:sodipodi="http://sodipodi.sourceforge.net/DTD/sodipodi-0.dtd"
   xmlns:inkscape="http://www.inkscape.org/namespaces/inkscape"
   width="130pt"
   height="130pt"
   viewBox="0 0 162.5 162.50001"
   id="svg4265"
   version="1.1"
   inkscape:version="0.91 r13725"
   sodipodi:docname="ic_launcher_v1.0.3-inkscape.svg"
   inkscape:export-filename="D:\Pictures\pwsongs\ic_launcher_v1.0.1.png"
   inkscape:export-xdpi="437.00598"
   inkscape:export-ydpi="437.00598">
  <defs
     id="defs4267" />
  <sodipodi:namedview
     id="base"
     pagecolor="#ffffff"
     bordercolor="#666666"
     borderopacity="1.0"
     inkscape:pageopacity="0.0"
     inkscape:pageshadow="2"
     inkscape:zoom="2.6030769"
     inkscape:cx="20.80948"
     inkscape:cy="83.75781"
     inkscape:document-units="px"
     inkscape:current-layer="layer1"
     showgrid="false"
     inkscape:window-width="1366"
     inkscape:window-height="715"
     inkscape:window-x="-8"
     inkscape:window-y="-8"
     inkscape:window-maximized="1"
     fit-margin-top="0"
     fit-margin-left="0"
     fit-margin-right="0"
     fit-margin-bottom="0"
     borderlayer="false"
     units="pt" />
  <metadata
     id="metadata4270">
    <rdf:RDF>
      <cc:Work
         rdf:about="">
        <dc:format>image/svg+xml</dc:format>
        <dc:type
           rdf:resource="http://purl.org/dc/dcmitype/StillImage" />
        <dc:title></dc:title>
      </cc:Work>
    </rdf:RDF>
  </metadata>
  <g
     inkscape:label="Layer 1"
     inkscape:groupmode="layer"
     id="layer1"
     transform="translate(-48.722381,-16.507807)"
     style="display:inline">
    <path
       style="display:inline;fill:#800080;fill-rule:evenodd;stroke:#000000;stroke-width:1px;stroke-linecap:butt;stroke-linejoin:miter;stroke-opacity:1"
       d="m 92.480469,17.638672 c -1.10082,0.03457 -2.268919,0.243722 -3.513672,0.648437 -7.327478,2.38244 -10.381719,14.76067 1.332031,14.44336 8.776062,-0.23774 0.259437,-9.223722 4,-8.888672 5.879072,0.5266 5.711002,10.355946 4.222656,10.222656 -6.876111,-0.61579 -7.410065,7.859001 -1.111328,7.332031 2.545942,-0.213 -28.033713,59.676676 -18.220703,84.445316 7.221934,18.22861 25.312387,14.65131 31.332027,26.88867 2.83747,5.76832 -8.68756,11.19339 -5.33203,11.33398 12.56663,0.52649 31.04517,0.701 47.55469,1.55469 3.26582,0.16887 -4.01841,-4.70782 -2.22266,-9.55469 6.05746,-16.34955 24.00153,-13.35682 28.88868,-27.77734 7.57,-22.33683 -5.78342,-46.321221 -16,-83.556641 -4.59398,-18.31524 10.98015,-24.989888 7.55664,-19.554688 -3.35456,5.32574 -1.93445,8.482478 0.96484,8.517578 11.47439,0.13888 10.6062,-10.772478 3.70117,-14.517578 -7.97076,-4.32312 -15.97096,3.03511 -20.88867,12.44336 -0.77216,0.6962 -2.98765,1.254956 -3.11133,0.222656 -0.81362,-6.79109 -4.96817,-6.816104 -5.11133,0.222656 -0.0228,1.12071 -3.26403,1.56223 -3.33203,0.443359 -0.52488,-8.6324 -5.03986,-9.172519 -4.89062,-0.443359 0.0242,1.41498 -4.2051,1.259928 -4.2207,-0.445312 -0.11203,-12.2305 -5.00422,-12.461292 -5.11133,0.667968 -0.014,1.71008 -4.0888,2.14824 -4.22266,0.44336 -0.82239,-10.47459 -4.96027,-10.21252 -4.88867,2 0.006,1.00613 -2.972,1.339744 -3,0.333984 -0.22119,-7.93245 -5.1114,-7.732128 -4.66602,-0.111328 0.0804,1.37601 -3.63927,1.738359 -4.11132,0.443359 -3.5314,-9.688061 -7.89192,-17.999824 -15.597661,-17.757812 z m 59.251951,22.005859 c 0.9561,-0.04975 1.95626,0.228587 2.13086,0.873047 11.70401,43.19916 27.87519,75.976372 3.55469,83.777342 -5.33025,1.70972 -8.83199,-8.15724 -6,-11.10937 3.1395,-3.27269 2.48967,-4.55511 0.96484,-6.36524 -2.50783,-2.97709 -5.0289,-0.73444 -4.96484,-2.30273 0.94951,-23.246114 2.42045,-46.827226 2.44531,-63.777346 0.001,-0.667695 0.91304,-1.045954 1.86914,-1.095703 z m -41.74609,1.546875 c 0.9561,0.04975 1.86814,0.428013 1.86914,1.095703 0.0249,16.95013 1.49385,40.531269 2.44336,63.777341 0.0641,1.56829 -2.45505,-0.67435 -4.96289,2.30274 -1.52482,1.81013 -2.17661,3.09059 0.96289,6.36328 2.83199,2.95213 -0.66976,12.82105 -6,11.11133 -24.320507,-7.80097 -8.147371,-40.578187 3.55664,-83.777347 0.1746,-0.64446 1.17476,-0.922794 2.13086,-0.873047 z m 33.66015,0.03906 c 0.66649,-4e-6 1.32912,0.204018 1.32032,0.611328 -0.44921,20.79372 -2.09605,48.227429 -2.44532,66.222656 -0.0115,0.59248 -1.78934,0.59247 -1.77734,0 0.37437,-18.489127 1.06554,-45.263686 1.55469,-66.222656 0.01,-0.407295 0.68117,-0.611325 1.34765,-0.611328 z m -25.69335,0.08398 c 0.66648,4e-6 1.33815,0.204033 1.34765,0.611328 0.48915,20.95897 1.18032,47.731591 1.55469,66.220696 0.012,0.59247 -1.76584,0.59248 -1.77734,0 -0.34927,-17.995205 -1.99611,-45.426976 -2.44532,-66.220696 -0.009,-0.40731 0.65383,-0.611332 1.32032,-0.611328 z m 17.48242,0.25 c 0.89021,4.5e-5 1.77275,0.241546 1.7539,0.722656 -0.8311,21.19591 -1.5447,45.71797 -2,65.332028 -0.0156,0.67059 -2.004,0.4481 -2,-0.22266 0.10622,-19.630643 -0.14721,-44.114028 0.44336,-65.109368 0.0135,-0.48129 0.91252,-0.722701 1.80274,-0.722656 z m -9.27149,0.08398 c 0.89022,-4.6e-5 1.7892,0.239413 1.80274,0.720703 0.59057,20.99534 0.33714,45.480657 0.44336,65.111331 0.004,0.67076 -1.98443,0.89326 -2,0.22265 -0.4553,-19.614038 -1.1689,-44.138071 -2,-65.333981 -0.0189,-0.48111 0.86369,-0.720658 1.7539,-0.720703 z m 4.16407,81.437504 c 0.83984,-0.0101 1.66957,0.23207 2.19335,0.75586 0.89043,0.89043 -0.81805,2.81999 0,3.77734 0.92562,1.08324 3.29704,-0.41527 4.22266,0.66797 0.91429,1.06998 0.93863,3.172 0,4.2207 -0.8947,0.99962 -3.04492,-0.49677 -4,0.44531 -1.27551,1.25817 0.67712,4.14829 -0.66601,5.33399 -1.05511,0.93142 -3.20697,0.97425 -4.22266,0 -1.28409,-1.2317 1.03551,-4.07582 -0.22266,-5.33399 -1.25817,-1.25817 -4.10228,1.06144 -5.33398,-0.22265 -0.97426,-1.01569 -0.97334,-3.20609 0,-4.22266 1.17936,-1.23175 3.84362,0.91992 5.11133,-0.2207 1.11363,-1.00199 -0.46717,-3.46775 0.66797,-4.44531 0.56128,-0.48338 1.41015,-0.74576 2.25,-0.75586 z m -28.47266,44.31054 c -1.27441,-0.002 -4.830933,3.31583 -3.556642,3.33399 25.076272,0.35745 35.369242,0.35103 59.333982,1.33398 1.54009,0.0632 -1.12493,-3.74675 -2.66601,-3.77734 -11.39661,-0.2262 -43.81172,-0.87433 -53.11133,-0.89063 z m -6.000001,5.7793 c -1.944348,-0.006 -5.721272,4.40246 -3.777344,4.44336 26.108945,0.54908 42.988785,0.88567 68.443355,0.88867 1.65634,1.7e-4 -0.56658,-4.41336 -2.22265,-4.44336 -22.29626,-0.40319 -42.15389,-0.82487 -62.443361,-0.88867 z"
       id="path3354"
       inkscape:connector-curvature="0" />
  </g>
  <g
     inkscape:groupmode="layer"
     id="layer3"
     inkscape:label="Layer 2"
     transform="translate(-30,-1.8538072e-5)" />
</svg>
