<svg width="130pt" height="130pt" version="1.1" viewBox="0 0 162.5 162.50001" xmlns="http://www.w3.org/2000/svg">
 <defs>
  <filter id="filter5611" color-interpolation-filters="sRGB">
   <feFlood flood-color="rgb(219,38,219)" flood-opacity=".99216" result="flood"/>
   <feComposite in="flood" in2="SourceGraphic" operator="out" result="composite1"/>
   <feGaussianBlur in="composite1" result="blur" stdDeviation="4"/>
   <feOffset dx="1" dy="1" result="offset"/>
   <feComposite in="offset" in2="SourceGraphic" operator="atop" result="fbSourceGraphic"/>
   <feColorMatrix in="fbSourceGraphic" result="fbSourceGraphicAlpha" values="0 0 0 -1 0 0 0 0 -1 0 0 0 0 -1 0 0 0 0 1 0"/>
   <feFlood flood-color="rgb(0,0,0)" flood-opacity=".99216" in="fbSourceGraphic" result="flood"/>
   <feComposite in="flood" in2="fbSourceGraphic" operator="in" result="composite1"/>
   <feGaussianBlur in="composite1" result="blur" stdDeviation="2"/>
   <feOffset dx="1.5" dy="1.5" result="offset"/>
   <feComposite in="fbSourceGraphic" in2="offset" result="composite2"/>
  </filter>
 </defs>
 <g transform="translate(-48.722 -16.508)">
  <path d="m83.839 18.849c-20.92 0.56481-20.145 25.89-6.2893 26.481 10.361-0.2303 6.0136-8.7883 10.149-6.8663 15.344 7.132-32.978 51.731-19.553 85.203 8.5264 17.658 30.505 13.675 36.993 26.048 3.5998 6.8641-15.87 20.198-12.418 23.474 25.839 1.2369 50.27 0.38118 74.504 0 3.4523-3.2759-16.018-16.61-12.418-23.474 6.4887-12.373 28.465-8.3895 36.992-26.048 13.425-33.472-34.896-78.071-19.552-85.203 4.1351-1.9221-0.21253 6.636 10.149 6.8663 13.855-0.59108 14.63-25.916-6.2892-26.481-9.0974-0.24562-14.244 7.817-18.414 17.202-0.55732 1.2545-6.6549 1.9243-6.6162 0.06385 0.29203-14.03-8.2204-14.866-8.3639-0.20044-0.024 2.448-7.5892 2.5151-7.5475 0.26429 0.33037-17.814-10.237-17.695-9.7811 0.37072 0.0534 2.1144-8.1279 1.813-8.1518-0.63501-0.14344-14.666-8.6577-13.83-8.3656 0.20044 0.0387 1.8605-6.0571 1.1906-6.6144-0.06385-4.1693-9.385-9.3162-17.448-18.414-17.202zm37.294 28.653c2.1187 0.01746 4.4379 2.3227 4.6016 6.233 0.90768 21.674 0.78928 37.59 1.1681 55.929 0.16171 7.8287-9.7356 7.5764-9.6645 0.34944 0.21196-21.532 0.67026-36.385 0.3711-56.745-0.0591-4.0161 1.6542-5.7819 3.5237-5.7665zm17.678 0c1.8694-0.0154 3.5844 1.7504 3.5254 5.7665-0.29915 20.36 0.15736 35.213 0.36933 56.745 0.0711 7.227-9.8244 7.4792-9.6627-0.34944 0.37878-18.338 0.25864-34.254 1.1663-55.929 0.16375-3.9103 2.4829-6.2156 4.6016-6.233zm-32.499 3.0686c1.4714 0.11924 2.4731 1.8293 2.4758 2.6057 0.0819 23.656-0.90568 36.605-0.46652 55.21 0.21669 9.1805-9.1743 6.532-13.957 2.0203-11.936-11.26-2.8476-33.798 7.9115-56.037 1.4623-3.0225 2.8917-3.8922 4.0362-3.7994zm47.322 0c1.1444-0.09274 2.5721 0.77691 4.0344 3.7994 10.759 22.239 19.849 44.777 7.9133 56.037-4.7826 4.5117-14.174 7.1602-13.957-2.0203 0.43914-18.606-0.54847-31.555-0.46653-55.21 3e-3 -0.77635 1.0044-2.4864 2.4758-2.6057zm-17.284 84.53c15.283-1.5324 15.277 14.096 0.49317 11.349 2.7521 14.202-12.701 15.061-12.29 0.24626-13.247 1.3166-12.432-14.319 0.24592-11.842 0.71764-13.61 12.286-13.077 11.551 0.24684z" fill="#800080" fill-rule="evenodd" filter="url(#filter5611)" stroke="#555" stroke-width="1.0694px"/>
 </g>
</svg>
