<?xml version="1.0" encoding="UTF-8" standalone="no"?>
<!-- Created with Inkscape (http://www.inkscape.org/) -->

<svg
   xmlns:dc="http://purl.org/dc/elements/1.1/"
   xmlns:cc="http://creativecommons.org/ns#"
   xmlns:rdf="http://www.w3.org/1999/02/22-rdf-syntax-ns#"
   xmlns:svg="http://www.w3.org/2000/svg"
   xmlns="http://www.w3.org/2000/svg"
   xmlns:sodipodi="http://sodipodi.sourceforge.net/DTD/sodipodi-0.dtd"
   xmlns:inkscape="http://www.inkscape.org/namespaces/inkscape"
   width="130pt"
   height="130pt"
   viewBox="0 0 162.5 162.50001"
   id="svg4265"
   version="1.1"
   inkscape:version="0.92.1 r15371"
   sodipodi:docname="ic_launcher_v1.0.5-inkscape-part2.svg"
   inkscape:export-filename="D:\Pictures\pwsongs\ic_launcher_v1.0.1.png"
   inkscape:export-xdpi="437.00598"
   inkscape:export-ydpi="437.00598">
  <defs
     id="defs4267" />
  <sodipodi:namedview
     id="base"
     pagecolor="#ffffff"
     bordercolor="#666666"
     borderopacity="1.0"
     inkscape:pageopacity="0.0"
     inkscape:pageshadow="2"
     inkscape:zoom="2.6030769"
     inkscape:cx="96.884175"
     inkscape:cy="104.71698"
     inkscape:document-units="px"
     inkscape:current-layer="layer1"
     showgrid="false"
     inkscape:window-width="1061"
     inkscape:window-height="832"
     inkscape:window-x="359"
     inkscape:window-y="0"
     inkscape:window-maximized="0"
     fit-margin-top="0"
     fit-margin-left="0"
     fit-margin-right="0"
     fit-margin-bottom="0"
     borderlayer="false"
     units="pt" />
  <metadata
     id="metadata4270">
    <rdf:RDF>
      <cc:Work
         rdf:about="">
        <dc:format>image/svg+xml</dc:format>
        <dc:type
           rdf:resource="http://purl.org/dc/dcmitype/StillImage" />
        <dc:title></dc:title>
      </cc:Work>
    </rdf:RDF>
  </metadata>
  <g
     inkscape:label="Layer 1"
     inkscape:groupmode="layer"
     id="layer1"
     transform="translate(-48.722381,-16.507807)"
     style="display:inline">
    <path
       style="display:inline;fill:#800080;fill-rule:evenodd;stroke:#000000;stroke-width:1.22036099px;stroke-linecap:butt;stroke-linejoin:miter;stroke-opacity:1"
       clip-path="none"
       d="m 73.188664,17.99955 c -26.388862,0.583049 -25.410208,26.72651 -7.93249,27.336679 13.070023,-0.237735 7.585062,-9.073149 12.80126,-7.089018 19.35532,7.362348 -41.598044,53.401672 -24.663736,87.954859 10.755488,18.22861 38.478603,14.11689 46.663662,26.88904 4.54096,7.08582 -20.018984,20.85198 -15.664086,24.23366 17.631576,0.7434 32.221516,-0.31913 46.991346,-0.256 V 22.822548 c -0.16327,-0.0078 -0.31855,-0.0206 -0.49631,-0.02014 -4.93805,0.01265 -3.13092,13.808937 -6.05471,13.086938 -5.5629,-1.373702 -9.4893,2.254488 -9.51951,-0.272604 -0.18094,-15.139204 -10.92087,-14.276764 -10.5525,0.206593 0.0488,1.920575 -7.641711,1.228786 -8.344715,-0.06621 C 91.157618,26.069059 84.664428,17.745999 73.188664,17.99955 Z m 31.471956,35.437832 c 0.10335,24.419489 -1.14213,37.786151 -0.58816,56.992818 0.27334,9.47701 -11.572868,6.74355 -17.605835,2.08614 -15.056445,-11.62347 -3.591532,-34.889979 9.980437,-57.847225 4.216148,-7.131699 8.207528,-2.656494 8.213558,-1.231733 z m 21.37807,0.57552 c 1.14496,22.374246 0.9941,38.804509 1.47192,57.735218 0.20398,8.08152 -12.27888,7.82052 -12.18913,0.36015 0.26739,-22.226916 0.84498,-37.559849 0.46761,-58.577046 -0.1588,-8.844371 9.86077,-7.11665 10.2496,0.481678 z"
       id="path3354"
       inkscape:connector-curvature="0"
       sodipodi:nodetypes="scscsccccsssssssssssssss" />
  </g>
  <g
     inkscape:groupmode="layer"
     id="layer3"
     inkscape:label="Layer 2"
     transform="translate(-30,-1.8538072e-5)"
     style="display:inline" />
</svg>
