<?xml version="1.0" encoding="UTF-8" standalone="no"?>
<!-- Created with Inkscape (http://www.inkscape.org/) -->

<svg
   xmlns:dc="http://purl.org/dc/elements/1.1/"
   xmlns:cc="http://creativecommons.org/ns#"
   xmlns:rdf="http://www.w3.org/1999/02/22-rdf-syntax-ns#"
   xmlns:svg="http://www.w3.org/2000/svg"
   xmlns="http://www.w3.org/2000/svg"
   xmlns:sodipodi="http://sodipodi.sourceforge.net/DTD/sodipodi-0.dtd"
   xmlns:inkscape="http://www.inkscape.org/namespaces/inkscape"
   width="29.749701mm"
   height="45.684502mm"
   viewBox="0 0 105.41232 161.87422"
   id="svg4265"
   version="1.1"
   inkscape:version="0.91 r13725"
   sodipodi:docname="ic_launcher_v1.0.1.svg">
  <defs
     id="defs4267" />
  <sodipodi:namedview
     id="base"
     pagecolor="#ffffff"
     bordercolor="#666666"
     borderopacity="1.0"
     inkscape:pageopacity="0.0"
     inkscape:pageshadow="2"
     inkscape:zoom="1.979899"
     inkscape:cx="60.969724"
     inkscape:cy="64.271821"
     inkscape:document-units="px"
     inkscape:current-layer="layer1"
     showgrid="false"
     inkscape:window-width="1366"
     inkscape:window-height="715"
     inkscape:window-x="-8"
     inkscape:window-y="-8"
     inkscape:window-maximized="1"
     fit-margin-top="0"
     fit-margin-left="0"
     fit-margin-right="0"
     fit-margin-bottom="0" />
  <metadata
     id="metadata4270">
    <rdf:RDF>
      <cc:Work
         rdf:about="">
        <dc:format>image/svg+xml</dc:format>
        <dc:type
           rdf:resource="http://purl.org/dc/dcmitype/StillImage" />
        <dc:title></dc:title>
      </cc:Work>
    </rdf:RDF>
  </metadata>
  <g
     inkscape:label="Layer 1"
     inkscape:groupmode="layer"
     id="layer1"
     transform="translate(-18.722381,-17.133589)">
    <path
       style="display:inline;fill:#800080;fill-rule:evenodd;stroke:#000000;stroke-width:1px;stroke-linecap:butt;stroke-linejoin:miter;stroke-opacity:1"
       d="m 34.480469,17.638672 c -1.10082,0.03457 -2.268919,0.243722 -3.513672,0.648437 -7.327478,2.38244 -10.381719,14.76067 1.332031,14.44336 8.776062,-0.23774 0.259437,-9.223722 4,-8.888672 5.879072,0.5266 5.711006,10.355946 4.222656,10.222656 -6.876111,-0.61579 -7.410065,7.859001 -1.111328,7.332031 2.545942,-0.213 -28.033713,59.676676 -18.220703,84.445316 7.221934,18.22861 25.312391,14.65131 31.332031,26.88867 2.83747,5.76832 -8.687561,11.19339 -5.332031,11.33398 12.56663,0.52649 31.045168,0.701 47.554688,1.55469 3.26582,0.16887 -4.018407,-4.70782 -2.222657,-9.55469 6.05746,-16.34955 24.001526,-13.35682 28.888676,-27.77734 7.57,-22.33683 -5.78342,-46.321221 -16,-83.556641 -4.59398,-18.31524 10.98015,-24.989888 7.55664,-19.554688 -3.35456,5.32574 -1.93445,8.482478 0.96484,8.517578 11.47439,0.13888 10.6062,-10.772478 3.70117,-14.517578 -7.97076,-4.32312 -15.97096,3.03511 -20.888669,12.44336 -0.77216,0.6962 -2.987649,1.254956 -3.111329,0.222656 -0.81362,-6.79109 -4.968168,-6.816104 -5.111328,0.222656 -0.02279,1.12071 -3.264031,1.56223 -3.332031,0.443359 -0.52488,-8.6324 -5.039865,-9.172519 -4.890625,-0.443359 0.02419,1.41498 -4.205103,1.259928 -4.220703,-0.445312 -0.11203,-12.2305 -5.004218,-12.461292 -5.111328,0.667968 -0.01395,1.71008 -4.088796,2.14824 -4.222656,0.44336 -0.82239,-10.47459 -4.960272,-10.21252 -4.888672,2 0.0059,1.00613 -2.972,1.339744 -3,0.333984 -0.22119,-7.93245 -5.111396,-7.732128 -4.666016,-0.111328 0.08041,1.37601 -3.639278,1.738359 -4.111328,0.443359 C 46.54673,25.708423 42.18621,17.39666 34.480469,17.638672 Z m 59.251953,22.005859 c 0.956099,-0.04975 1.956254,0.228587 2.130859,0.873047 11.704009,43.19916 27.875189,75.976372 3.554688,83.777342 -5.33025,1.70972 -8.83199,-8.15724 -6,-11.10937 3.1395,-3.27269 2.489666,-4.55511 0.964843,-6.36524 -2.507829,-2.97709 -5.028903,-0.73444 -4.964843,-2.30273 0.94951,-23.246114 2.420452,-46.827226 2.445312,-63.777346 0.001,-0.667695 0.913042,-1.045954 1.869141,-1.095703 z m -41.746094,1.546875 c 0.956099,0.04975 1.868141,0.428013 1.869141,1.095703 0.02487,16.95013 1.493849,40.531269 2.443359,63.777341 0.06406,1.56829 -2.45505,-0.67435 -4.96289,2.30274 -1.524821,1.81013 -2.17661,3.09059 0.96289,6.36328 2.83199,2.95213 -0.66976,12.82105 -6,11.11133 -24.320505,-7.80097 -8.147369,-40.578187 3.556641,-83.777347 0.174605,-0.64446 1.17476,-0.922794 2.130859,-0.873047 z m 33.660156,0.03906 c 0.666489,-4e-6 1.329113,0.204018 1.320313,0.611328 -0.44921,20.79372 -2.096043,48.227429 -2.445313,66.222656 -0.0115,0.59248 -1.789343,0.59247 -1.777343,0 0.37437,-18.489127 1.065537,-45.263686 1.554687,-66.222656 0.0095,-0.407295 0.681168,-0.611325 1.347656,-0.611328 z m -25.693359,0.08398 c 0.666489,4e-6 1.338151,0.204033 1.347656,0.611328 0.48915,20.95897 1.180318,47.731591 1.554688,66.220696 0.012,0.59247 -1.765844,0.59248 -1.777344,0 -0.34927,-17.995205 -1.996102,-45.426976 -2.445313,-66.220696 -0.0088,-0.40731 0.653824,-0.611332 1.320313,-0.611328 z m 17.482422,0.25 c 0.890217,4.5e-5 1.772756,0.241546 1.753906,0.722656 -0.8311,21.19591 -1.5447,45.71797 -2,65.332028 -0.01557,0.67059 -2.004,0.4481 -2,-0.22266 0.10622,-19.630643 -0.14721,-44.114028 0.443359,-65.109368 0.01354,-0.48129 0.912517,-0.722701 1.802735,-0.722656 z m -9.271485,0.08398 c 0.89022,-4.6e-5 1.789195,0.239413 1.802735,0.720703 0.59057,20.99534 0.337139,45.480657 0.443359,65.111331 0.004,0.67076 -1.98443,0.89326 -2,0.22265 -0.4553,-19.614038 -1.1689,-44.138071 -2,-65.333981 -0.01885,-0.48111 0.863689,-0.720658 1.753906,-0.720703 z m 4.164063,81.437504 c 0.839843,-0.0101 1.669574,0.23207 2.193359,0.75586 0.89043,0.89043 -0.81805,2.81999 0,3.77734 0.92562,1.08324 3.297037,-0.41527 4.222657,0.66797 0.91429,1.06998 0.93863,3.172 0,4.2207 -0.8947,0.99962 -3.04492,-0.49677 -4,0.44531 -1.27551,1.25817 0.677114,4.14829 -0.666016,5.33399 -1.05511,0.93142 -3.206966,0.97425 -4.222656,0 -1.28409,-1.2317 1.035513,-4.07582 -0.222657,-5.33399 -1.25817,-1.25817 -4.102284,1.06144 -5.333984,-0.22265 -0.97426,-1.01569 -0.97334,-3.20609 0,-4.22266 1.17936,-1.23175 3.843618,0.91992 5.111328,-0.2207 1.11363,-1.00199 -0.467171,-3.46775 0.667969,-4.44531 0.561285,-0.48338 1.410157,-0.74576 2.25,-0.75586 z m -28.472656,44.31054 c -1.27441,-0.002 -4.830932,3.31583 -3.556641,3.33399 25.07627,0.35745 35.369244,0.35103 59.333984,1.33398 1.540088,0.0632 -1.124935,-3.74675 -2.666015,-3.77734 -11.39661,-0.2262 -43.811718,-0.87433 -53.111328,-0.89063 z m -6,5.7793 c -1.944348,-0.006 -5.721272,4.40246 -3.777344,4.44336 26.108944,0.54908 42.988789,0.88567 68.443355,0.88867 1.65634,1.7e-4 -0.56658,-4.41336 -2.22265,-4.44336 -22.296262,-0.40319 -42.153894,-0.82487 -62.443361,-0.88867 z"
       id="path3354"
       inkscape:connector-curvature="0" />
  </g>
</svg>
