<?xml version="1.0" encoding="UTF-8" standalone="no"?>
<!-- Created with Inkscape (http://www.inkscape.org/) -->

<svg
   xmlns:dc="http://purl.org/dc/elements/1.1/"
   xmlns:cc="http://creativecommons.org/ns#"
   xmlns:rdf="http://www.w3.org/1999/02/22-rdf-syntax-ns#"
   xmlns:svg="http://www.w3.org/2000/svg"
   xmlns="http://www.w3.org/2000/svg"
   xmlns:sodipodi="http://sodipodi.sourceforge.net/DTD/sodipodi-0.dtd"
   xmlns:inkscape="http://www.inkscape.org/namespaces/inkscape"
   width="130pt"
   height="130pt"
   viewBox="0 0 162.5 162.50001"
   id="svg4265"
   version="1.1"
   inkscape:version="0.92.1 r15371"
   sodipodi:docname="ic_launcher_v1.0.5-inkscape-part4.svg"
   inkscape:export-filename="D:\Pictures\pwsongs\ic_launcher_v1.0.1.png"
   inkscape:export-xdpi="437.00598"
   inkscape:export-ydpi="437.00598">
  <defs
     id="defs4267" />
  <sodipodi:namedview
     id="base"
     pagecolor="#ffffff"
     bordercolor="#666666"
     borderopacity="1.0"
     inkscape:pageopacity="0.0"
     inkscape:pageshadow="2"
     inkscape:zoom="1.3015385"
     inkscape:cx="65.067206"
     inkscape:cy="159.79049"
     inkscape:document-units="px"
     inkscape:current-layer="layer1"
     showgrid="false"
     inkscape:window-width="1061"
     inkscape:window-height="832"
     inkscape:window-x="359"
     inkscape:window-y="0"
     inkscape:window-maximized="0"
     fit-margin-top="0"
     fit-margin-left="0"
     fit-margin-right="0"
     fit-margin-bottom="0"
     borderlayer="false"
     units="pt" />
  <metadata
     id="metadata4270">
    <rdf:RDF>
      <cc:Work
         rdf:about="">
        <dc:format>image/svg+xml</dc:format>
        <dc:type
           rdf:resource="http://purl.org/dc/dcmitype/StillImage" />
        <dc:title></dc:title>
      </cc:Work>
    </rdf:RDF>
  </metadata>
  <g
     inkscape:label="Layer 1"
     inkscape:groupmode="layer"
     id="layer1"
     transform="translate(-48.722381,-16.507807)"
     style="display:inline">
    <path
       style="display:inline;fill:#800080;fill-rule:evenodd;stroke:#000000;stroke-width:1.17977524px;stroke-linecap:butt;stroke-linejoin:miter;stroke-opacity:1"
       clip-path="none"
       d="M 35.677734,1.5917969 C 12.556344,2.2137158 13.412937,30.099153 28.726562,30.75 40.178254,30.496416 35.373031,21.073047 39.943359,23.189453 56.90211,31.042624 3.4945313,80.15108 18.332031,117.00781 c 9.423744,19.44385 33.715138,15.05802 40.886719,28.68164 3.978709,7.55821 -17.540284,22.24052 -13.724609,25.84766 28.558956,1.36196 55.560629,0.41972 82.345699,0 3.81566,-3.60714 -17.70329,-18.28945 -13.72461,-25.84766 7.17159,-13.62361 31.46104,-9.23779 40.88477,-28.68164 14.8375,-36.856731 -38.56812,-85.965184 -21.60938,-93.818357 4.57033,-2.116405 -0.2349,7.306958 11.2168,7.560547 15.31362,-0.650848 16.17022,-28.5362842 -6.95117,-29.1582031 -10.05485,-0.2704544 -15.74351,8.6074701 -20.35156,18.9414061 -0.61597,1.381329 -7.35525,2.118925 -7.3125,0.07031 0.32276,-15.4489146 -9.0856,-16.3691868 -9.24414,-0.220704 -0.0265,2.695562 -8.387933,2.769441 -8.3418,0.291016 C 92.771381,1.0582453 81.091362,1.1893231 81.595703,21.082031 81.65469,23.41022 72.612412,23.078378 72.585938,20.382812 72.427399,4.2343303 63.017092,5.1546024 63.339844,20.603516 c 0.04277,2.048613 -6.69459,1.311018 -7.310547,-0.07031 C 51.421237,10.199265 45.732568,1.3213425 35.677734,1.5917969 Z m 41.21875,31.5507811 c 2.341696,0.01922 4.904946,2.557562 5.085938,6.863281 1.0032,23.865861 0.872349,41.391232 1.291016,61.583981 0.178719,8.62029 -10.760286,8.3425 -10.681641,0.38477 0.234272,-23.708711 0.740801,-40.06408 0.410156,-62.482422 -0.06528,-4.422187 1.828313,-6.366572 3.894531,-6.34961 z m 19.539063,0 c 2.066208,-0.01696 3.961703,1.927424 3.896483,6.34961 -0.33064,22.418344 0.17392,38.773709 0.4082,62.482422 0.0786,7.95773 -10.858403,8.23552 -10.679683,-0.38477 0.418645,-20.192748 0.285862,-37.718114 1.289062,-61.583981 0.180982,-4.30572 2.744242,-6.844057 5.085938,-6.863281 z m -35.919922,3.378906 c 1.626251,0.131302 2.733352,2.014285 2.736328,2.869141 0.09056,26.047453 -1.001001,40.305862 -0.515625,60.792965 0.239499,10.10881 -10.139817,7.19253 -15.425781,2.22461 -13.192154,-12.398364 -3.147345,-37.215393 8.744141,-61.703122 1.61617,-3.328126 3.196084,-4.285715 4.460937,-4.183594 z m 52.302735,0 c 1.26485,-0.102122 2.84281,0.855472 4.45898,4.183594 11.89149,24.487732 21.93825,49.304758 8.7461,61.703122 -5.28598,4.96792 -15.66528,7.8842 -15.42578,-2.22461 0.48536,-20.487105 -0.60619,-34.745511 -0.51563,-60.792965 0.003,-0.854855 1.11008,-2.737839 2.73633,-2.869141 z M 93.715794,129.59882 c 16.891746,-1.68732 16.885336,15.52182 0.54508,12.49604 3.041738,15.63751 -14.037261,16.58388 -13.583773,0.27116 -14.641194,1.44976 -13.740528,-15.76653 0.271802,-13.039 0.793163,-14.98665 13.579469,-14.39982 12.766891,0.2718 z"
       transform="matrix(0.93750006,0,0,0.93750006,48.722381,16.507807)"
       id="path3354"
       inkscape:connector-curvature="0"
       sodipodi:nodetypes="scscsccccscscccscccsscscccccscsccccscscsssccsccccc" />
  </g>
  <g
     inkscape:groupmode="layer"
     id="layer3"
     inkscape:label="Layer 2"
     transform="translate(-30,-1.8538072e-5)"
     style="display:inline" />
</svg>
