<?xml version="1.0" encoding="UTF-8" standalone="no"?>
<!-- Created with Inkscape (http://www.inkscape.org/) -->

<svg
   xmlns:dc="http://purl.org/dc/elements/1.1/"
   xmlns:cc="http://creativecommons.org/ns#"
   xmlns:rdf="http://www.w3.org/1999/02/22-rdf-syntax-ns#"
   xmlns:svg="http://www.w3.org/2000/svg"
   xmlns="http://www.w3.org/2000/svg"
   xmlns:sodipodi="http://sodipodi.sourceforge.net/DTD/sodipodi-0.dtd"
   xmlns:inkscape="http://www.inkscape.org/namespaces/inkscape"
   width="130pt"
   height="130pt"
   viewBox="0 0 162.5 162.50001"
   id="svg4265"
   version="1.1"
   inkscape:version="0.92.1 r15371"
   sodipodi:docname="ic_launcher_v1.0.5-inkscape-part3.svg"
   inkscape:export-filename="D:\Pictures\pwsongs\ic_launcher_v1.0.1.png"
   inkscape:export-xdpi="437.00598"
   inkscape:export-ydpi="437.00598">
  <defs
     id="defs4267" />
  <sodipodi:namedview
     id="base"
     pagecolor="#ffffff"
     bordercolor="#666666"
     borderopacity="1.0"
     inkscape:pageopacity="0.0"
     inkscape:pageshadow="2"
     inkscape:zoom="1.8406533"
     inkscape:cx="50.97323"
     inkscape:cy="82.559918"
     inkscape:document-units="px"
     inkscape:current-layer="layer1"
     showgrid="false"
     inkscape:window-width="1061"
     inkscape:window-height="832"
     inkscape:window-x="359"
     inkscape:window-y="0"
     inkscape:window-maximized="0"
     fit-margin-top="0"
     fit-margin-left="0"
     fit-margin-right="0"
     fit-margin-bottom="0"
     borderlayer="false"
     units="pt" />
  <metadata
     id="metadata4270">
    <rdf:RDF>
      <cc:Work
         rdf:about="">
        <dc:format>image/svg+xml</dc:format>
        <dc:type
           rdf:resource="http://purl.org/dc/dcmitype/StillImage" />
        <dc:title></dc:title>
      </cc:Work>
    </rdf:RDF>
  </metadata>
  <g
     inkscape:label="Layer 1"
     inkscape:groupmode="layer"
     id="layer1"
     transform="translate(-48.722381,-16.507807)"
     style="display:inline">
    <path
       style="display:inline;fill:#800080;fill-rule:evenodd;stroke:#000000;stroke-width:1.1060394px;stroke-linecap:butt;stroke-linejoin:miter;stroke-opacity:1"
       clip-path="none"
       d="m 82.169517,18.000117 c -21.676305,0.583049 -20.872124,26.725648 -6.515599,27.335817 10.735961,-0.237735 6.230219,-9.072144 10.514902,-7.088013 15.89883,7.362348 -34.169882,53.40153 -20.259725,87.954719 8.83476,18.22861 31.607677,14.11689 38.331035,26.88904 3.73004,7.08582 -16.444448,20.85049 -12.867253,24.23218 26.774023,1.27684 52.088023,0.39349 77.199033,0 3.57718,-3.38169 -16.59728,-17.14636 -12.86726,-24.23218 6.72336,-12.77214 29.49628,-8.66043 38.33103,-26.88904 13.91016,-34.55319 -36.15854,-80.592369 -20.25972,-87.954719 4.28468,-1.98413 -0.21956,6.850273 10.51641,7.088013 14.35652,-0.61017 15.1592,-26.752768 -6.5171,-27.335817 -9.42642,-0.253551 -14.75899,8.069503 -19.07904,17.757569 -0.57747,1.294996 -6.8956,1.986494 -6.85552,0.06592 0.30259,-14.483358 -8.51928,-15.346114 -8.66791,-0.20691 -0.0248,2.527089 -7.86287,2.59635 -7.81962,0.272827 0.34231,-18.38961 -10.60683,-18.267414 -10.13401,0.382001 0.0553,2.182677 -8.42236,1.872267 -8.44718,-0.654826 -0.14863,-15.139203 -8.9705,-14.276447 -8.66792,0.20691 0.0401,1.920575 -6.27655,1.229078 -6.85401,-0.06592 C 96.930004,26.06962 91.595924,17.746566 82.169517,18.000117 Z m 38.643893,29.578859 c 2.19534,0.01802 4.59819,2.397714 4.76787,6.434326 0.9405,22.374246 0.81677,38.804281 1.20927,57.734988 0.16755,8.08152 -10.08627,7.82109 -10.01254,0.36072 0.21963,-22.226917 0.69351,-37.560077 0.38353,-58.577274 -0.0612,-4.1458 1.71479,-5.968662 3.65187,-5.95276 z m 18.31797,0 c 1.93707,-0.0159 3.71301,1.806961 3.65187,5.95276 -0.30998,21.017199 0.16389,36.350355 0.38353,58.577274 0.0737,7.46037 -10.18009,7.7208 -10.01254,-0.36072 0.39248,-18.930706 0.26877,-35.360737 1.20927,-57.734988 0.16967,-4.036613 2.57253,-6.416304 4.76787,-6.434326 z M 105.45541,50.7467 c 1.52461,0.123095 2.56315,1.888392 2.56594,2.68982 0.0849,24.419489 -0.93784,37.786746 -0.4828,56.99341 0.22453,9.47701 -9.507482,6.74299 -14.463074,2.08557 -12.367645,-11.62347 -2.949624,-34.889433 8.198644,-57.84668 1.51516,-3.120118 2.99549,-4.017859 4.18129,-3.92212 z m 49.03396,0 c 1.1858,-0.09574 2.66613,0.802005 4.18129,3.92212 11.14827,22.95725 20.56629,46.22321 8.19865,57.84668 -4.9556,4.65742 -14.68609,7.39144 -14.46156,-2.08557 0.45503,-19.206666 -0.56921,-32.57392 -0.48431,-56.99341 0.003,-0.801427 1.04132,-2.566725 2.56593,-2.68982 z"
       id="path3354"
       inkscape:connector-curvature="0"
       sodipodi:nodetypes="scscsccccscsccssscccssssssssssssssssssssssscs" />
  </g>
  <g
     inkscape:groupmode="layer"
     id="layer3"
     inkscape:label="Layer 2"
     transform="translate(-30,-1.8538072e-5)"
     style="display:inline" />
</svg>
