<?xml version="1.0" encoding="UTF-8" standalone="no"?>
<!-- Created with Inkscape (http://www.inkscape.org/) -->

<svg
   xmlns:dc="http://purl.org/dc/elements/1.1/"
   xmlns:cc="http://creativecommons.org/ns#"
   xmlns:rdf="http://www.w3.org/1999/02/22-rdf-syntax-ns#"
   xmlns:svg="http://www.w3.org/2000/svg"
   xmlns="http://www.w3.org/2000/svg"
   xmlns:sodipodi="http://sodipodi.sourceforge.net/DTD/sodipodi-0.dtd"
   xmlns:inkscape="http://www.inkscape.org/namespaces/inkscape"
   id="svg3336"
   version="1.1"
   inkscape:version="0.91 r13725"
   width="240"
   height="240"
   viewBox="0 0 240 240"
   sodipodi:docname="ic_launcher_v1.0.0-inkscape.svg">
  <metadata
     id="metadata3342">
    <rdf:RDF>
      <cc:Work
         rdf:about="">
        <dc:format>image/svg+xml</dc:format>
        <dc:type
           rdf:resource="http://purl.org/dc/dcmitype/StillImage" />
        <dc:title />
      </cc:Work>
    </rdf:RDF>
  </metadata>
  <defs
     id="defs3340" />
  <sodipodi:namedview
     pagecolor="#ffffff"
     bordercolor="#666666"
     borderopacity="1"
     objecttolerance="10"
     gridtolerance="10"
     guidetolerance="10"
     inkscape:pageopacity="0"
     inkscape:pageshadow="2"
     inkscape:window-width="1366"
     inkscape:window-height="715"
     id="namedview3338"
     showgrid="false"
     inkscape:snap-nodes="false"
     inkscape:snap-global="false"
     inkscape:zoom="2.6976071"
     inkscape:cx="91.455214"
     inkscape:cy="122.94662"
     inkscape:window-x="-8"
     inkscape:window-y="-8"
     inkscape:window-maximized="1"
     inkscape:current-layer="layer2" />
  <g
     inkscape:groupmode="layer"
     id="layer1"
     inkscape:label="Layer 1"
     style="display:inline">
    <path
       style="fill:none;fill-rule:evenodd;stroke:#000000;stroke-width:1px;stroke-linecap:butt;stroke-linejoin:miter;stroke-opacity:1"
       d="m 63.777778,41.777778 c -3.740563,-0.335048 4.776059,8.651154 -4,8.888889 -11.71375,0.317315 -8.660811,-12.062009 -1.333333,-14.444445 9.958024,-3.237724 15.07523,6.039045 19.11111,17.111112 0.472042,1.295005 4.191527,0.931562 4.111111,-0.444445 C 81.221294,45.26809 86.112137,45.06755 86.333334,53 c 0.02805,1.005763 3.005895,0.672802 2.999999,-0.333334 -0.07157,-12.212514 4.066494,-12.474588 4.888889,-1.999999 0.133856,1.704886 4.208271,1.265631 4.222222,-0.444445 0.107109,-13.129261 4.999086,-12.89716 5.111116,-0.666667 0.0156,1.705242 4.24641,1.859419 4.22222,0.444445 -0.14924,-8.72916 4.36401,-8.18795 4.88889,0.444444 0.068,1.118877 3.31054,0.676267 3.33333,-0.444444 0.14316,-7.038765 4.29749,-7.013315 5.11111,-0.222222 0.12368,1.032297 2.33895,0.473981 3.11111,-0.222223 4.91771,-9.408244 12.91813,-16.767562 20.88889,-12.444444 6.90503,3.7451 7.77232,14.657067 -3.70207,14.51819 -2.89929,-0.03509 -4.31915,-3.192455 -0.96459,-8.51819 3.42351,-5.435207 -12.14955,1.240313 -7.55557,19.555556 10.21658,37.235425 23.57001,61.218723 16.00001,83.555553 C 144.00174,160.64274 126.05746,157.65045 120,174 c -1.79575,4.84687 5.48804,9.72443 2.22222,9.55556 C 105.7127,182.70187 87.233297,182.52649 74.666667,182 71.311138,181.85941 82.837474,176.43499 80,170.66667 73.980365,158.42931 55.888601,162.00639 48.666667,143.77778 38.853657,119.00914 69.434835,59.120333 66.888888,59.333333 60.590151,59.860301 61.123889,51.384213 68,52 c 1.48835,0.133288 1.656853,-9.695624 -4.222222,-10.222222 z"
       id="path3354"
       inkscape:connector-curvature="0"
       sodipodi:nodetypes="sssssssssssssscssscsssssssss" />
    <path
       style="fill:none;fill-rule:evenodd;stroke:#000000;stroke-width:1px;stroke-linecap:butt;stroke-linejoin:miter;stroke-opacity:1"
       d="m 67.777778,188.66667 c 25.076277,0.35745 35.368592,0.35038 59.333332,1.33333 1.54009,0.0632 -1.12559,-3.74719 -2.66667,-3.77778 -11.39661,-0.2262 -43.811501,-0.87258 -53.111107,-0.88888 -1.274416,-0.002 -4.829844,3.31517 -3.555555,3.33333 z"
       id="path3360"
       inkscape:connector-curvature="0"
       sodipodi:nodetypes="sssss" />
    <path
       style="fill:none;fill-rule:evenodd;stroke:#000000;stroke-width:1px;stroke-linecap:butt;stroke-linejoin:miter;stroke-opacity:1"
       d="m 65.333333,191.11111 c 20.289468,0.0638 40.148187,0.4857 62.444447,0.88889 1.65607,0.03 3.87856,4.44461 2.22222,4.44444 -25.45457,-0.003 -42.335501,-0.3398 -68.444444,-0.88888 -1.943928,-0.0409 1.833429,-4.45056 3.777777,-4.44445 z"
       id="path3362"
       inkscape:connector-curvature="0"
       sodipodi:nodetypes="sssss" />
    <path
       style="fill:none;fill-rule:evenodd;stroke:#000000;stroke-width:1px;stroke-linecap:butt;stroke-linejoin:miter;stroke-opacity:1"
       d="m 126.89608,142.2318 c -5.33025,1.70972 -8.83199,-8.15897 -6,-11.1111 3.1395,-3.27269 2.48867,-4.55376 0.96385,-6.36389 -2.50783,-2.97709 -5.02791,-0.73449 -4.96385,-2.30278 0.94951,-23.246097 2.41958,-46.827653 2.44444,-63.777775 0.002,-1.335388 3.65079,-1.511143 4,-0.222222 11.70401,43.199157 27.87606,75.976797 3.55556,83.777767 z"
       id="path3364-2"
       inkscape:connector-curvature="0"
       sodipodi:nodetypes="sssssss" />
    <path
       style="fill:none;fill-rule:evenodd;stroke:#000000;stroke-width:1px;stroke-linecap:butt;stroke-linejoin:miter;stroke-opacity:1"
       d="m 73.777778,143.77777 c 5.330247,1.70972 8.83199,-8.15897 6,-11.1111 -3.1395,-3.27269 -2.488673,-4.55376 -0.963858,-6.36389 2.507838,-2.97709 5.027917,-0.73449 4.963858,-2.30278 -0.94951,-23.2461 -2.419581,-46.827656 -2.444445,-63.777778 -0.002,-1.335388 -3.650791,-1.511143 -4,-0.222222 -11.704013,43.19916 -27.876058,75.9768 -3.555555,83.77777 z"
       id="path3364"
       inkscape:connector-curvature="0"
       sodipodi:nodetypes="sssssss" />
    <path
       style="fill:none;fill-rule:evenodd;stroke:#000000;stroke-width:1px;stroke-linecap:butt;stroke-linejoin:miter;stroke-opacity:1"
       d="m 102.66667,125.33333 c -0.004,0.67076 1.98443,0.89282 2,0.22223 0.4553,-19.61407 1.1689,-44.137427 2,-65.333338 0.0377,-0.962224 -3.52848,-0.962583 -3.55556,0 -0.59057,20.995339 -0.33822,45.480438 -0.44444,65.111108 z"
       id="path4195"
       inkscape:connector-curvature="0"
       sodipodi:nodetypes="sssss" />
    <path
       style="fill:none;fill-rule:evenodd;stroke:#000000;stroke-width:1px;stroke-linecap:butt;stroke-linejoin:miter;stroke-opacity:1"
       d="m 110.22222,126 c -0.012,0.59247 1.76628,0.59248 1.77778,0 0.34927,-17.99524 1.99523,-45.428504 2.44444,-66.222222 0.0176,-0.814623 -2.64765,-0.814592 -2.66666,0 C 111.28863,80.736746 110.59659,107.51086 110.22222,126 Z"
       id="path4197"
       inkscape:connector-curvature="0"
       sodipodi:nodetypes="sssss" />
    <path
       style="fill:none;fill-rule:evenodd;stroke:#000000;stroke-width:1px;stroke-linecap:butt;stroke-linejoin:miter;stroke-opacity:1"
       d="m 91.777778,150.66667 c -0.974254,-1.01569 -0.973335,-3.20566 0,-4.22223 1.179359,-1.23175 3.843406,0.9184 5.111111,-0.22222 1.113632,-1.00199 -0.468469,-3.46688 0.666667,-4.44444 1.122578,-0.96675 3.396874,-1.04757 4.444444,0 0.89043,0.89043 -0.81805,2.82043 0,3.77778 0.92562,1.08324 3.2966,-0.41658 4.22222,0.66666 0.91429,1.06998 0.93863,3.17352 0,4.22222 -0.8947,0.99962 -3.04492,-0.49764 -4,0.44445 -1.27551,1.25816 0.67647,4.14764 -0.66666,5.33334 -1.05511,0.93142 -3.206536,0.97424 -4.222227,-1e-5 -1.28409,-1.2317 1.035947,-4.07516 -0.222222,-5.33333 -1.25817,-1.25817 -4.101631,1.06187 -5.333333,-0.22222 z"
       id="path4217"
       inkscape:connector-curvature="0"
       sodipodi:nodetypes="asssssaaaaaaa" />
    <path
       style="display:inline;fill:none;fill-rule:evenodd;stroke:#000000;stroke-width:1px;stroke-linecap:butt;stroke-linejoin:miter;stroke-opacity:1"
       d="m 90.33336,126.0833 c 0.012,0.59247 -1.76628,0.59248 -1.77778,0 -0.34927,-17.99524 -1.99523,-45.428501 -2.44444,-66.222223 -0.0176,-0.814623 2.64765,-0.814592 2.66666,0 0.48915,20.958972 1.18119,47.733083 1.55556,66.222223 z"
       id="path4197-0"
       inkscape:connector-curvature="0"
       sodipodi:nodetypes="sssss" />
    <path
       style="display:inline;fill:none;fill-rule:evenodd;stroke:#000000;stroke-width:1px;stroke-linecap:butt;stroke-linejoin:miter;stroke-opacity:1"
       d="m 97.88891,125.41663 c 0.004,0.67076 -1.98443,0.89282 -2,0.22223 -0.4553,-19.61407 -1.1689,-44.137431 -2,-65.333339 -0.0377,-0.962224 3.52848,-0.962583 3.55556,0 0.59057,20.995338 0.33822,45.480439 0.44444,65.111109 z"
       id="path4195-8"
       inkscape:connector-curvature="0"
       sodipodi:nodetypes="sssss" />
    <path
       style="fill:#800080"
       d="m 116.18083,182.65095 c -3.05827,-0.14922 -13.06714,-0.46548 -22.241934,-0.7028 -9.174798,-0.23732 -17.074825,-0.51398 -17.555617,-0.6148 -0.828114,-0.17365 -0.764071,-0.29873 1.215709,-2.37433 2.249761,-2.35864 3.531721,-4.70805 3.539176,-6.48616 0.007,-1.6577 -1.857827,-4.59614 -4.425241,-6.97311 -1.823119,-1.68789 -3.586489,-2.74597 -8.836579,-5.30222 -7.832304,-3.81354 -10.825607,-5.72748 -13.474257,-8.61553 -11.379897,-12.40847 -9.110801,-33.40642 8.498251,-78.641791 2.023867,-5.199052 3.977806,-10.356066 4.342087,-11.46003 0.638857,-1.936076 0.638339,-2.024751 -0.01463,-2.502218 -0.372332,-0.272255 -1.119673,-0.495009 -1.660758,-0.495009 -1.42517,0 -2.284152,-1.122394 -2.142666,-2.799727 0.147543,-1.749151 1.417403,-2.76857 3.780514,-3.034927 1.62708,-0.183396 1.728235,-0.263539 2.106721,-1.669132 1.229766,-4.567003 -2.594012,-10.657003 -6.133519,-9.768643 -0.758287,0.190318 -0.933188,0.459668 -0.92993,1.432113 0.0022,0.65874 0.250533,2.010292 0.551836,3.003449 0.95654,3.152951 0.02883,4.312845 -3.446207,4.308725 -2.541551,-0.003 -4.235542,-0.583308 -5.47144,-1.874296 -0.951885,-0.994315 -1.089536,-1.41013 -1.079356,-3.260513 0.02124,-3.86162 2.862279,-7.252542 6.884974,-8.217571 6.474077,-1.553108 11.534846,2.781527 15.893785,13.613297 1.572832,3.908417 2.128602,4.560236 3.888263,4.560236 1.851288,0 2.788486,-0.902477 2.812796,-2.708587 0.02468,-1.833696 0.723458,-4.034133 1.345572,-4.237191 0.728151,-0.237668 1.595178,1.512307 1.883549,3.801673 0.240424,1.908728 0.387087,2.194653 1.277895,2.491316 0.693404,0.230922 1.327358,0.181586 2.038844,-0.158665 0.987957,-0.472466 1.042876,-0.640383 1.271809,-3.888518 0.249854,-3.544994 0.861259,-6.050296 1.476545,-6.050296 0.566914,0 1.402432,2.342695 1.775796,4.979121 0.411925,2.908704 0.493278,3.056254 1.84938,3.354103 1.075965,0.236322 3.732015,-0.598126 3.750702,-1.178355 0.08195,-2.544423 0.841761,-7.812473 1.277045,-8.854258 0.4611,-1.103574 0.66469,-1.275812 1.0904,-0.922503 0.63824,0.529696 1.21563,3.014599 1.5369,6.6144 0.27539,3.085617 0.59709,3.42147 3.2773,3.42147 2.00823,0 2.44433,-0.57246 2.45243,-3.219246 0.006,-1.804425 0.62833,-3.576381 1.2712,-3.616725 0.67429,-0.04231 1.74133,2.376328 1.95295,4.426737 0.2427,2.35157 0.93739,3.003022 2.8042,2.629662 1.6114,-0.322281 2.12156,-0.879332 2.12156,-2.316569 0,-1.665146 0.92776,-3.835042 1.63971,-3.835042 0.67981,0 1.53792,1.557538 1.88893,3.428567 0.14074,0.750257 0.48685,1.55577 0.76911,1.790028 0.75286,0.62482 3.0039,0.0862 3.67221,-0.878667 0.31173,-0.450059 1.43592,-2.149084 2.49821,-3.775611 2.34525,-3.590947 5.41423,-6.684168 8.06106,-8.124757 2.77884,-1.512434 6.31362,-1.758462 8.69583,-0.605249 3.3081,1.601421 5.39748,4.578638 5.39506,7.687548 -0.003,3.319243 -2.09012,5.234046 -6.39385,5.864831 -3.72351,0.545743 -4.74183,-2.054583 -2.48485,-6.345168 1.35287,-2.571854 1.32485,-3.627465 -0.10068,-3.791717 -2.48896,-0.286784 -6.60032,4.358884 -8.09145,9.143002 -1.04642,3.35729 -1.06623,8.436983 -0.0494,12.659343 1.04235,4.32827 3.73162,13.106764 9.00433,29.392556 6.62911,20.475324 8.67956,29.061814 9.0922,38.074644 0.33638,7.34732 -1.28786,15.59108 -3.87568,19.67079 -1.51962,2.39568 -4.54717,4.93442 -8.61143,7.22105 -10.59303,5.95984 -12.55111,7.3636 -15.23143,10.91945 -3.52408,4.67522 -4.31086,8.29025 -2.50455,11.50771 0.51013,0.90866 1.23011,2.11084 1.59995,2.67152 0.36985,0.56068 0.52816,0.99343 0.35179,0.96166 -0.17636,-0.0318 -2.82287,-0.17985 -5.88114,-0.32907 z M 101.94109,156.686 c 0.61175,-0.61175 0.75721,-1.17393 0.6954,-2.68757 -0.12281,-3.00726 -0.18011,-2.91526 1.64537,-2.64152 2.17142,0.32563 3.18755,-0.59788 3.18755,-2.89699 0,-2.41974 -0.76218,-3.23342 -3.02871,-3.23342 l -1.87456,0 0.22675,-1.57548 c 0.24956,-1.73386 0.0683,-2.18264 -1.13762,-2.81742 -1.41815,-0.74645 -3.391141,-0.52209 -4.415338,0.50211 -0.774634,0.77463 -0.90991,1.21951 -0.81722,2.68757 0.105716,1.67436 0.06635,1.75592 -0.815671,1.68993 -3.618062,-0.27067 -3.819163,-0.24373 -4.505171,0.60346 -1.387511,1.7135 -0.496584,5.18905 1.35423,5.28291 0.407769,0.0207 1.545915,-0.091 2.529212,-0.24829 l 1.78781,-0.28589 -0.255211,2.58998 c -0.240183,2.43749 -0.204173,2.62573 0.611538,3.19709 1.25958,0.88224 3.852641,0.79252 4.811641,-0.16647 z M 77.680344,143.71144 c 1.560286,-0.96431 2.941196,-3.27433 3.491619,-5.84087 0.567236,-2.64492 0.241087,-4.01968 -1.510636,-6.36752 -0.812424,-1.0889 -1.477135,-2.28576 -1.477135,-2.6597 0,-0.37394 0.547877,-1.27773 1.217505,-2.00842 0.976225,-1.06525 1.565619,-1.36777 2.974102,-1.52652 0.966129,-0.1089 1.837763,-0.32932 1.936962,-0.48983 0.0992,-0.16051 -0.23516,-9.27147 -0.743017,-20.24659 -0.507858,-10.975122 -1.106206,-25.626459 -1.329661,-32.558528 -0.450305,-13.969479 -0.3548,-13.53051 -2.943794,-13.53051 -0.737601,0 -1.60669,0.208518 -1.931309,0.463373 -0.32462,0.254856 -1.370025,3.215813 -2.323122,6.579906 -0.953097,3.364092 -3.536484,12.121854 -5.74086,19.461692 -6.35543,21.161467 -8.286055,29.490037 -8.736829,37.689997 -0.593133,10.78959 3.00696,17.68372 10.938486,20.94704 2.575914,1.05983 4.557888,1.08757 6.177689,0.0865 z m 52.441996,-2.07182 c 2.92719,-1.37248 6.14942,-4.26852 7.49018,-6.73194 3.15781,-5.80193 3.28845,-14.94477 0.39548,-27.67782 -1.18609,-5.22046 -3.31453,-12.765153 -8.10478,-28.729167 -2.11067,-7.034012 -4.29455,-14.457258 -4.85306,-16.496102 -0.55851,-2.038844 -1.26541,-3.998914 -1.57089,-4.355712 -0.68316,-0.797922 -2.93691,-0.861809 -4.00522,-0.113536 -0.73024,0.51148 -0.77451,0.991786 -0.99948,10.842943 -0.12946,5.669267 -0.66406,19.476912 -1.18799,30.683659 -0.52394,11.206745 -0.90366,21.297615 -0.84383,22.424155 l 0.10878,2.04825 1.85349,0.26196 c 1.4082,0.19903 2.09841,0.53516 2.87292,1.3991 1.31409,1.46584 1.30314,2.83407 -0.0358,4.46995 -1.59099,1.94384 -1.9104,2.73634 -1.9104,4.73989 0,3.24264 1.57692,6.48285 3.85103,7.91298 1.55478,0.97776 3.89497,0.74891 6.93954,-0.67861 z M 90.674788,126.59888 c 0.213311,-0.28378 0.244487,-4.84554 0.08043,-11.76969 C 90.607888,108.61071 90.298814,94.598292 90.068388,83.690477 89.559214,59.587412 89.540435,59.315653 88.346499,58.77166 c -0.664308,-0.302679 -1.148737,-0.292027 -1.880408,0.04134 l -0.985573,0.449058 0.246226,9.155941 c 0.135423,5.035769 0.570064,16.662595 0.965863,25.837393 0.395799,9.174794 0.824768,20.101144 0.953263,24.280774 0.128496,4.17963 0.298943,7.80785 0.378777,8.06271 0.07983,0.25485 0.630399,0.46337 1.223488,0.46337 0.593088,0 1.23508,-0.20852 1.426653,-0.46337 z m 22.061972,-5.46781 c 0.22577,-4.93395 1.83963,-45.65819 2.28137,-57.568282 0.11703,-3.155281 0.0344,-4.116309 -0.39033,-4.541062 -0.68848,-0.688483 -2.48839,-0.69642 -3.05519,-0.01347 -0.30813,0.371277 -0.58663,6.539644 -0.94982,21.037162 -0.83989,33.525723 -1.05132,45.793173 -0.80054,46.446713 0.16858,0.43929 0.58535,0.5839 1.44427,0.50112 l 1.20732,-0.11635 0.26292,-5.74583 z m -14.526486,4.99439 c 0.374632,-0.45141 0.431623,-7.18671 0.281294,-33.244415 L 98.303049,60.202732 97.470025,59.528191 c -0.987909,-0.79996 -2.560124,-0.874347 -3.527611,-0.166904 -0.677193,0.495176 -0.678713,0.988818 -0.0619,20.110414 0.347782,10.78153 0.799534,25.608099 1.003897,32.947939 0.204362,7.33984 0.44532,13.55368 0.535467,13.80854 0.230449,0.65153 2.225372,0.57809 2.790399,-0.10272 z m 6.559466,0.26799 c 0.50104,-0.31837 0.64406,-3.22157 1.2271,-24.90943 0.53016,-19.720873 1.07226,-36.155936 1.28603,-38.98946 0.2228,-2.953254 -0.23206,-3.640909 -2.40836,-3.640909 -2.56602,0 -2.44667,-0.806536 -2.71927,18.375993 -0.13548,9.533082 -0.24632,24.299766 -0.24632,32.814866 0,13.58027 0.0716,15.55354 0.58253,16.06451 0.62803,0.62804 1.55534,0.74381 2.27829,0.28443 z"
       id="path4257"
       inkscape:connector-curvature="0" />
    <path
       style="fill:#800080"
       d="m 116.55153,188.95242 c -3.26215,-0.13936 -14.52213,-0.37716 -25.022177,-0.52842 -10.500047,-0.15127 -19.92314,-0.38449 -20.940208,-0.51825 l -1.849215,-0.24321 1.223756,-0.87139 1.223755,-0.87139 26.574382,0.45335 c 28.165947,0.48051 27.658397,0.44104 28.613227,2.22516 0.45268,0.84583 1.1212,0.82172 -9.82352,0.35415 z"
       id="path4259"
       inkscape:connector-curvature="0" />
    <path
       style="fill:#800080"
       d="m 77.289527,195.22707 c -7.933847,-0.16274 -14.689834,-0.35178 -15.013306,-0.42009 -0.4472,-0.0944 -0.263906,-0.45346 0.764921,-1.4983 l 1.353051,-1.37412 12.548158,0.001 c 6.901487,7.9e-4 21.222512,0.17047 31.824499,0.37706 l 19.27634,0.37562 0.83408,0.94106 c 1.85129,2.08876 2.51822,2.01707 -18.16425,1.95252 -10.44907,-0.0326 -25.489647,-0.19244 -33.423493,-0.35518 z"
       id="path4263"
       inkscape:connector-curvature="0" />
  </g>
  <g
     inkscape:groupmode="layer"
     id="layer2"
     inkscape:label="Layer 2"
     style="display:inline">
    <g
       id="g4242">
      <path
         sodipodi:nodetypes="sssssssssssss"
         inkscape:connector-curvature="0"
         id="path3346"
         d="M 135.77778,72.888889 C 115.05909,128.23645 107.43388,147.97641 84,208.44444 c -2.306752,5.95227 17.29271,11.65985 19.11111,7.11112 25.32016,-63.33843 34.75565,-86.86953 57.77777,-144.222226 1.28425,-3.199321 8.51026,-0.502699 29.77778,-0.444445 5.50677,0.01508 9.01551,-20.466655 3.55556,-20.888889 -18.47573,-1.428784 -26.25412,0.100525 -25.55555,-1.777779 5.44099,-14.629546 2.74694,-8.574225 7.77777,-24.222221 1.40785,-4.379006 -19.24193,-8.882218 -21.33333,-3.555556 -6.20008,15.791223 -5.92099,14.490365 -11.77778,28.666667 -1.05282,2.548355 -5.65536,3.351147 -27.33333,2 -4.48126,-0.279309 -10.03954,17.562748 -5.33333,17.777778 17.73379,0.810269 26.59675,0.03127 25.11111,4 z"
         style="fill:none;fill-rule:evenodd;stroke:#000000;stroke-width:1px;stroke-linecap:butt;stroke-linejoin:miter;stroke-opacity:1" />
      <path
         sodipodi:nodetypes="sssssssssssss"
         inkscape:connector-curvature="0"
         id="path3352"
         d="M 146,69.111111 C 149.39108,60.172598 132.13571,63.841301 119.11111,64 c -1.63958,0.01998 -0.0841,-4.652204 1.55556,-4.666667 17.44581,-0.153884 27.91663,0.778241 29.77777,-3.333333 7.29877,-16.124216 4.1032,-11.856093 10.88889,-24.444445 1.70132,-3.156175 3.31437,-2.108356 2,1.333334 -4.19277,10.978796 -8.09402,25.713489 -4.88889,25.555555 13.91015,-0.685425 10.19885,-0.225564 22.22223,1.111111 2.82135,0.313658 2.25825,2.899261 -0.44445,3.111112 -11.07652,0.868232 -24.84737,-2.089557 -26.88889,3.111111 -17.77054,45.269642 -38.7984,100.228632 -54.666663,138.888892 -1.527348,3.72112 -4.918078,1.35803 -3.555556,-2.44445 C 111.15615,157.44427 130.25822,110.60469 146,69.111111 Z"
         style="fill:none;fill-rule:evenodd;stroke:#000000;stroke-width:1px;stroke-linecap:butt;stroke-linejoin:miter;stroke-opacity:1" />
    </g>
    <path
       style="fill:#800080"
       d="m 95.607041,216.18666 c -4.738752,-0.91101 -10.158873,-3.86938 -10.888069,-5.94284 -0.276261,-0.78554 0.844808,-3.98432 6.621626,-18.89365 C 106.9101,151.167 119.4735,118.27029 130.45551,88.929427 c 6.0712,-16.220542 6.32461,-17.004619 5.76963,-17.851625 -1.0459,-1.596248 -3.54599,-2.004803 -15.03781,-2.457404 -6.40475,-0.252249 -10.76801,-0.574791 -11.07735,-0.818859 -0.72957,-0.57564 -0.3197,-5.721608 0.68681,-8.622864 0.98996,-2.853566 2.87554,-6.000705 4.08659,-6.820766 0.82677,-0.559839 1.50666,-0.590673 6.30189,-0.2858 2.95632,0.187959 8.38338,0.283343 12.06013,0.211966 6.22034,-0.120757 6.81191,-0.193174 8.5108,-1.041858 l 1.8258,-0.91208 2.71494,-6.487231 c 1.49323,-3.567977 4.22724,-10.240557 6.07559,-14.827956 1.84835,-4.587399 3.60825,-8.619321 3.91088,-8.959827 0.88747,-0.998537 3.94845,-1.54346 7.11169,-1.266044 5.39725,0.473338 11.91175,2.818647 12.21473,4.397474 0.15629,0.814423 -2.58054,10.144923 -5.51639,18.806721 -1.21006,3.570101 -2.20011,6.608597 -2.20011,6.752212 0,0.826237 2.44664,1.075845 13.71586,1.399301 7.41269,0.212764 12.54299,0.510484 12.99863,0.754332 1.13909,0.609626 1.54742,2.074774 1.54607,5.54755 -0.002,4.86427 -1.49489,10.023572 -3.63746,12.569877 l -1.05853,1.257989 -7.24122,-0.225007 c -3.98268,-0.123754 -9.95023,-0.418378 -13.26124,-0.654717 -6.84907,-0.488893 -8.92995,-0.306954 -10.01392,0.87555 -0.41288,0.450402 -13.76675,33.346739 -29.67527,73.102969 -26.90258,67.23095 -28.99802,72.31544 -29.97503,72.73294 -1.20367,0.51436 -3.274499,0.54365 -5.684179,0.0804 z m 2.143828,-9.44409 c 0.454299,-0.3182 1.092179,-1.09329 1.417512,-1.72241 0.325333,-0.62913 4.137829,-10.00232 8.472209,-20.82931 7.82441,-19.54486 12.93708,-32.56792 35.01533,-89.191495 7.76595,-19.917145 11.74762,-29.679289 12.28274,-30.114449 1.58658,-1.29021 3.62333,-1.49594 15.23207,-1.538582 10.61727,-0.039 11.41054,-0.08787 12.14039,-0.747903 0.9149,-0.827393 1.01426,-2.15841 0.22038,-2.952284 -0.30826,-0.308262 -1.26744,-0.652923 -2.13151,-0.765915 -0.86408,-0.112989 -3.48941,-0.469049 -5.83408,-0.791239 -2.88418,-0.396329 -6.21684,-0.546836 -10.30363,-0.465334 -6.0152,0.119958 -6.04147,0.116933 -6.25108,-0.720328 -0.54226,-2.16601 1.14184,-9.563556 4.38949,-19.281178 1.92975,-5.774197 2.20313,-6.912212 1.84783,-7.692002 -0.5775,-1.267488 -1.70085,-1.150646 -2.78409,0.28958 -1.42321,1.892236 -4.86207,9.025256 -7.05152,14.626582 -2.89559,7.407843 -4.84857,11.448676 -5.84859,12.101113 -1.83782,1.199037 -4.56815,1.473932 -16.80011,1.691481 l -12.21904,0.217314 -0.86547,1.285377 c -0.62706,0.931284 -0.83516,1.697174 -0.75543,2.780241 l 0.11005,1.494866 3.52164,-0.0129 c 1.93691,-0.0071 7.02475,-0.156428 11.30632,-0.331861 6.80005,-0.278621 8.05316,-0.240843 9.90731,0.29869 2.1856,0.635979 2.88124,1.334546 2.88249,2.89461 7.4e-4,1.008565 -0.21933,1.586773 -19.09722,50.161396 -16.20904,41.70742 -21.12423,54.58344 -27.877016,73.02768 -4.983195,13.61086 -5.224957,14.75579 -3.423787,16.21429 0.990848,0.80234 1.437993,0.81559 2.496812,0.074 l 0,0 z"
       id="path4246"
       inkscape:connector-curvature="0" />
    <path
       style="fill:none;fill-rule:evenodd;stroke:#000000;stroke-width:1px;stroke-linecap:butt;stroke-linejoin:miter;stroke-opacity:1"
       d="m 89.709135,208.49059 8.155376,3.33629 58.941129,-144.943269 35.95779,-0.741398 2.96559,-9.638171 -34.84569,-2.965592 10.75026,-30.39731 -10.75026,-0.741398 -13.71586,31.509407 -32.25081,0.370699 -2.59489,9.267473 30.02661,2.594892 z"
       id="path4428"
       inkscape:connector-curvature="0" />
  </g>
</svg>
