<?xml version="1.0" encoding="UTF-8" standalone="no"?>
<!-- Created with Inkscape (http://www.inkscape.org/) -->

<svg
   xmlns:dc="http://purl.org/dc/elements/1.1/"
   xmlns:cc="http://creativecommons.org/ns#"
   xmlns:rdf="http://www.w3.org/1999/02/22-rdf-syntax-ns#"
   xmlns:svg="http://www.w3.org/2000/svg"
   xmlns="http://www.w3.org/2000/svg"
   xmlns:xlink="http://www.w3.org/1999/xlink"
   xmlns:sodipodi="http://sodipodi.sourceforge.net/DTD/sodipodi-0.dtd"
   xmlns:inkscape="http://www.inkscape.org/namespaces/inkscape"
   width="200pt"
   height="200pt"
   viewBox="0 0 250 250"
   id="svg4200"
   version="1.1"
   inkscape:version="0.91 r13725"
   sodipodi:docname="psalm_cover_v1.1.svg"
   inkscape:export-filename="F:\Projects\pws\pws\resources\drawing\psalm_cover_v1.1.png"
   inkscape:export-xdpi="90"
   inkscape:export-ydpi="90">
  <defs
     id="defs4202">
    <linearGradient
       inkscape:collect="always"
       id="linearGradient6505">
      <stop
         style="stop-color:#001e1a;stop-opacity:1;"
         offset="0"
         id="stop6507" />
      <stop
         style="stop-color:#00280c;stop-opacity:0.79215688"
         offset="1"
         id="stop6509" />
    </linearGradient>
    <linearGradient
       inkscape:collect="always"
       id="linearGradient6233">
      <stop
         style="stop-color:#164244;stop-opacity:1"
         offset="0"
         id="stop6235" />
      <stop
         style="stop-color:#006e8f;stop-opacity:0.81313133"
         offset="1"
         id="stop6237" />
    </linearGradient>
    <linearGradient
       inkscape:collect="always"
       id="linearGradient4775">
      <stop
         style="stop-color:#255272;stop-opacity:1;"
         offset="0"
         id="stop4777" />
      <stop
         style="stop-color:#255272;stop-opacity:0;"
         offset="1"
         id="stop4779" />
    </linearGradient>
    <linearGradient
       inkscape:collect="always"
       xlink:href="#linearGradient4775"
       id="linearGradient4781"
       x1="247.88733"
       y1="581.93964"
       x2="261.97186"
       y2="327.0101"
       gradientUnits="userSpaceOnUse"
       gradientTransform="matrix(1,0,0,0.99404757,0,-0.79495923)" />
    <linearGradient
       inkscape:collect="always"
       xlink:href="#linearGradient6233"
       id="linearGradient6241"
       x1="407.04227"
       y1="786.86926"
       x2="378.8732"
       y2="436.16507"
       gradientUnits="userSpaceOnUse"
       gradientTransform="matrix(1,0,0,1.00369,0,-3.2128122)" />
    <filter
       inkscape:collect="always"
       style="color-interpolation-filters:sRGB"
       id="filter6501"
       x="-0.002647059"
       width="1.0052941"
       y="-0.0056249988"
       height="1.01125">
      <feGaussianBlur
         inkscape:collect="always"
         stdDeviation="0.7922536"
         id="feGaussianBlur6503" />
    </filter>
    <linearGradient
       inkscape:collect="always"
       xlink:href="#linearGradient6505"
       id="linearGradient6511"
       x1="379.78873"
       y1="1041.0947"
       x2="294.85916"
       y2="724.19324"
       gradientUnits="userSpaceOnUse" />
    <clipPath
       clipPathUnits="userSpaceOnUse"
       id="clipPath7250">
      <rect
         style="opacity:0.17627121;fill:#000000;fill-opacity:1;stroke:#000000;stroke-width:1.70000005;stroke-miterlimit:4;stroke-dasharray:none;stroke-opacity:1"
         id="rect7252"
         width="709.85913"
         height="708.45068"
         x="0"
         y="343.9115" />
    </clipPath>
  </defs>
  <sodipodi:namedview
     id="base"
     pagecolor="#ffffff"
     bordercolor="#666666"
     borderopacity="1.0"
     inkscape:pageopacity="0.0"
     inkscape:pageshadow="2"
     inkscape:zoom="0.71"
     inkscape:cx="245.37022"
     inkscape:cy="61.684754"
     inkscape:document-units="px"
     inkscape:current-layer="layer1"
     showgrid="false"
     inkscape:window-width="1366"
     inkscape:window-height="715"
     inkscape:window-x="-8"
     inkscape:window-y="-8"
     inkscape:window-maximized="1"
     inkscape:object-paths="true"
     inkscape:snap-bbox="true"
     inkscape:bbox-paths="true"
     inkscape:bbox-nodes="true"
     inkscape:snap-bbox-edge-midpoints="true"
     inkscape:snap-intersection-paths="true"
     units="pt">
    <sodipodi:guide
       position="0,0"
       orientation="0,708.66142"
       id="guide6637" />
    <sodipodi:guide
       position="708.6614,0"
       orientation="-708.66142,0"
       id="guide6639" />
    <sodipodi:guide
       position="-33.802816,708.45068"
       orientation="0,-708.66142"
       id="guide6641" />
    <sodipodi:guide
       position="0,708.66139"
       orientation="708.66142,0"
       id="guide6643" />
  </sodipodi:namedview>
  <metadata
     id="metadata4205">
    <rdf:RDF>
      <cc:Work
         rdf:about="">
        <dc:format>image/svg+xml</dc:format>
        <dc:type
           rdf:resource="http://purl.org/dc/dcmitype/StillImage" />
        <dc:title></dc:title>
      </cc:Work>
    </rdf:RDF>
  </metadata>
  <g
     inkscape:label="Layer 1"
     inkscape:groupmode="layer"
     id="layer1"
     transform="translate(0,-802.36222)">
    <path
       style="opacity:0.92000002;fill:url(#linearGradient6511);fill-opacity:1;stroke:none;stroke-width:1.70000005;stroke-miterlimit:4;stroke-dasharray:none;stroke-opacity:1;filter:url(#filter6501)"
       d="M -4.2253627,869.2636 714.0845,717.15093 l -4.22535,335.21137 -714.0845127,2.8169 z"
       id="rect4210"
       inkscape:connector-curvature="0"
       sodipodi:nodetypes="ccccc" />
    <path
       sodipodi:type="star"
       style="fill:#99a028;fill-opacity:1;stroke:none;stroke-width:1.70000005;stroke-miterlimit:4;stroke-dasharray:none;stroke-opacity:1"
       id="path6243"
       sodipodi:sides="100"
       sodipodi:cx="554.92957"
       sodipodi:cy="472.08054"
       sodipodi:r1="106.64307"
       sodipodi:r2="87.274902"
       sodipodi:arg1="0.5880026"
       sodipodi:arg2="0.58528617"
       inkscape:flatsided="false"
       inkscape:rounded="0"
       inkscape:randomized="0"
       d="m 643.66196,531.23547 -15.98405,-10.94097 12.09459,16.39579 -15.26552,-11.92302 11.04122,17.12286 -14.48674,-12.85802 9.94428,17.78235 -13.6508,-13.74228 8.8081,18.37167 -12.76098,-14.5723 7.63715,18.88849 -11.82079,-15.34482 6.43606,19.33075 -10.83396,-16.05677 5.20957,19.69673 -9.80436,-16.70535 3.96252,19.98497 -8.73608,-17.28801 2.69984,20.19435 -7.63332,-17.80244 1.4265,20.32402 -6.50044,-18.24661 0.14753,20.37349 -5.34189,-18.61877 -1.13203,20.34255 -4.16226,-18.91745 -2.40712,20.23132 -2.96621,-19.14147 -3.6727,20.04026 -1.75846,-19.28995 -4.92379,19.77011 -0.54377,-19.36231 -6.15545,19.42193 0.67308,-19.35824 -7.36282,18.9971 1.88727,-19.27778 -8.54113,18.4973 3.094,-19.12123 -9.68572,17.92449 4.28852,-18.88923 -10.7921,17.28096 5.46613,-18.58268 -11.85588,16.56921 6.62216,-18.20278 -12.87288,15.79207 7.75205,-17.75105 -13.83907,14.95262 8.85135,-17.22928 -14.75064,14.05416 9.91572,-16.6395 -15.604,13.10022 10.94096,-15.98405 -16.39579,12.09459 11.92302,-15.26552 -17.12286,11.04122 12.85802,-14.48674 -17.78235,9.94428 13.74228,-13.6508 -18.37167,8.8081 14.5723,-12.76098 -18.88848,7.63715 15.34481,-11.82079 -19.33075,6.43606 16.05677,-10.83396 -19.69673,5.20957 16.70535,-9.80436 -19.98497,3.96252 17.28801,-8.73608 -20.19435,2.69984 17.80244,-7.63332 -20.32402,1.4265 18.24661,-6.50043 -20.37349,0.14752 18.61877,-5.34189 -20.34255,-1.13203 18.91746,-4.16226 -20.23133,-2.40712 19.14147,-2.96621 -20.04026,-3.6727 19.28995,-1.75846 -19.77011,-4.92379 19.36231,-0.54377 -19.42193,-6.15545 19.35824,0.67308 -18.9971,-7.36282 19.27778,1.88727 -18.4973,-8.54113 19.12123,3.094 -17.92449,-9.68572 18.88923,4.28853 -17.28096,-10.79211 18.58268,5.46613 -16.56921,-11.85588 18.20279,6.62216 -15.79208,-12.87288 17.75106,7.75205 -14.95263,-13.83907 17.22928,8.85136 -14.05416,-14.75065 16.6395,9.91572 -13.10022,-15.604 15.98405,10.94096 -12.09459,-16.39579 15.26552,11.92302 -11.04122,-17.12286 14.48674,12.85802 -9.94428,-17.78235 13.6508,13.74228 -8.8081,-18.37167 12.76098,14.5723 -7.63715,-18.88848 11.82079,15.34481 -6.43606,-19.33075 10.83396,16.05677 -5.20957,-19.69673 9.80436,16.70535 -3.96252,-19.98497 8.73608,17.28801 -2.69984,-20.19435 7.63332,17.80244 -1.42649,-20.32402 6.50043,18.24661 -0.14753,-20.37349 5.34189,18.61877 1.13203,-20.34255 4.16227,18.91746 2.40711,-20.23133 2.96622,19.14147 3.67269,-20.04026 1.75846,19.28995 4.9238,-19.7701 0.54376,19.3623 6.15545,-19.42193 -0.67308,19.35824 7.36282,-18.9971 -1.88727,19.27778 8.54113,-18.4973 -3.094,19.12124 9.68572,-17.9245 -4.28852,18.88923 10.7921,-17.28096 -5.46613,18.58268 11.85588,-16.56921 -6.62216,18.20279 12.87289,-15.79208 -7.75206,17.75106 13.83907,-14.95263 -8.85135,17.22928 14.75064,-14.05415 -9.91572,16.63949 15.604,-13.10022 -10.94096,15.98405 16.39579,-12.09459 -11.92302,15.26552 17.12286,-11.04122 -12.85802,14.48674 17.78235,-9.94428 -13.74228,13.6508 18.37167,-8.8081 -14.5723,12.76098 18.88848,-7.63715 -15.34481,11.82079 19.33075,-6.43606 -16.05677,10.83396 19.69673,-5.20957 -16.70535,9.80436 19.98497,-3.96252 -17.28801,8.73608 20.19435,-2.69984 -17.80244,7.63332 20.32402,-1.42649 -18.24661,6.50043 20.37349,-0.14753 -18.61877,5.34189 20.34255,1.13203 -18.91745,4.16227 20.23132,2.40711 -19.14147,2.96622 20.04026,3.6727 -19.28995,1.75846 19.77011,4.92379 -19.36231,0.54376 19.42193,6.15545 -19.35824,-0.67308 18.9971,7.36282 -19.27778,-1.88727 18.4973,8.54113 -19.12123,-3.094 17.92449,9.68573 -18.88923,-4.28853 17.28096,10.7921 -18.58268,-5.46613 16.56921,11.85589 -18.20279,-6.62217 15.79208,12.87289 -17.75105,-7.75206 14.95262,13.83907 -17.22928,-8.85135 14.05416,14.75064 -16.6395,-9.91572 z"
       transform="matrix(2.0095468,0,0,1.8975826,-583.38552,-387.15489)" />
    <path
       style="fill:url(#linearGradient4781);fill-opacity:1;stroke:none;stroke-width:1.70000005;stroke-miterlimit:4;stroke-dasharray:none;stroke-opacity:1"
       d="m -4.2253533,338.26932 714.0845433,5.64218 4.22535,144.165 -715.4929919,84.00401 z"
       id="rect4756"
       inkscape:connector-curvature="0"
       sodipodi:nodetypes="ccccc" />
    <path
       style="fill:url(#linearGradient6241);fill-opacity:1;stroke:none;stroke-width:1.70000005;stroke-miterlimit:4;stroke-dasharray:none;stroke-opacity:1"
       d="M 0,570.97871 714.08448,487.57348 712.67603,720.82538 -2.8169014,870.67206 Z"
       id="rect4213"
       inkscape:connector-curvature="0"
       sodipodi:nodetypes="ccccc" />
  </g>
</svg>
